<svg xmlns="http://www.w3.org/2000/svg" viewBox="-2749.64 -7684.82 29.02 31.30" width="29" height="31">
  <path d="M 18.29117965698242 26.41236114501953 C 19.9513988494873 25.79717445373535 20.78873634338379 23.49218940734863 20.77230453491211 20.34789276123047 C 23.91003227233887 20.24273681640625 26.18215370178223 19.32192993164062 26.73227500915527 17.64067840576172 C 27.3106575012207 15.87529754638672 25.86141014099121 13.66232776641846 23.14432334899902 11.64127349853516 C 24.42990493774414 9.728668212890625 24.85974884033203 7.956713676452637 24.11968040466309 6.746052742004395 C 23.09042167663574 5.064144611358643 20.07559585571289 4.893251895904541 16.43901634216309 6.021751880645752 C 13.88887214660645 1.792327761650085 10.79846096038818 -0.6671122312545776 8.567086219787598 0.1590501070022583 C 6.906865119934082 0.7735798954963684 6.069528102874756 3.079220294952393 6.086618423461914 6.223517417907715 C 2.948233842849731 6.328675746917725 0.6761098504066467 7.249484539031982 0.1259905397891998 8.930079460144043 C -0.4523906409740448 10.69611835479736 0.9968557357788086 12.90908813476562 3.713943719863892 14.93014335632324 C 2.42835807800293 16.84274673461914 1.998516082763672 18.61470031738281 2.738584518432617 19.82535743713379 C 3.767845392227173 21.50726890563965 6.783324241638184 21.67815589904785 10.41924953460693 20.54965972900391 C 12.96939563751221 24.7784252166748 16.0598030090332 27.238525390625 18.29117965698242 26.41236114501953" fill="#ffffff" transform="matrix(-0.642788,-0.766044,0.766044,-0.642788,-2736.67,-7650.35)"/>
</svg>