<svg xmlns="http://www.w3.org/2000/svg" viewBox="2956.20 -8717.56 428.19 350.70" width="428" height="351">
  <ellipse cx="92.8571548461914" cy="73.50286865234375" rx="92.8571548461914" ry="73.50286865234375" fill="none" stroke="#e13950" stroke-width="3" transform="matrix(0.34202,0.939693,-0.939693,0.34202,3294.93,-8656.62)"/>
  <ellipse cx="94.90048217773438" cy="84.72348022460938" rx="94.90048217773438" ry="84.72348022460938" fill="none" stroke="#e13950" stroke-width="3" transform="matrix(0.34202,0.939693,-0.939693,0.34202,3301.36,-8680.13)"/>
  <rect x="0" y="0" width="187.83172607421875" height="80.06661224365234" fill="#ffffff" transform="matrix(0.945519,0.325568,-0.325568,0.945519,3150.81,-8673.42)"/>
  <ellipse cx="63.8265266418457" cy="63.826515197753906" rx="63.8265266418457" ry="63.826515197753906" fill="#18536c" transform="matrix(0.83867,-0.544639,0.544639,0.83867,3173.29,-8635.71)"/>
  <ellipse cx="27.6200008392334" cy="27.76310157775879" rx="27.6200008392334" ry="27.76310157775879" fill="#18536c" transform="matrix(0.83867,-0.544639,0.544639,0.83867,3307.82,-8594.08)"/>
  <path d="M 37.25127410888672 30.06586265563965 C 37.25127410888672 30.06586265563965 26.2486743927002 27.21109580993652 33.10062026977539 7.23362922668457 C 39.95256805419922 -12.74363994598389 16.18378829956055 14.99452209472656 16.18378829956055 14.99452209472656 L -1.823862839955837e-05 29.96989250183105 L 36.18186569213867 45.47398376464844 L 37.25127410888672 30.06586265563965 Z" fill="#18536c" transform="matrix(0.83867,-0.544639,0.544639,0.83867,3291.43,-8622.26)"/>
  <ellipse cx="30.51183319091797" cy="30.5118408203125" rx="30.51183319091797" ry="30.5118408203125" fill="#18536c" transform="matrix(0.956305,-0.292372,0.292372,0.956305,3305.31,-8607.41)"/>
  <path d="M 0 0 C 0 0 7.901835918426514 1.491312742233276 10.7961311340332 8.011938095092773" fill="none" stroke="#ffffff" stroke-width="3" stroke-linecap="round" transform="matrix(-0.866025,0.5,-0.5,-0.866025,3346.99,-8563.83)"/>
  <path d="M 0 0 C 0 0 0.7252647280693054 0.1348251104354858 0.990688145160675 0.7250543236732483" fill="none" stroke="#ffffff" stroke-width="3" stroke-linecap="round" transform="matrix(-0.994522,-0.104528,0.104528,-0.994522,3330.44,-8567.61)"/>
  <ellipse cx="42.16402816772461" cy="41.89872741699219" rx="42.16402816772461" ry="41.89872741699219" fill="#e13950" transform="matrix(0.945519,0.325568,-0.325568,0.945519,3193.28,-8528.18)"/>
  <path d="M 0 0 C 0 0 9.683326721191406 1.827541470527649 13.2301607131958 9.818230628967285" fill="none" stroke="#ffffff" stroke-width="3" stroke-linecap="round" transform="matrix(-0.920505,0.390731,-0.390731,-0.920505,3220.25,-8442.4)"/>
  <path d="M 0 0 C 0 0 0.8887771964073181 0.1652198731899261 1.21403980255127 0.8885140419006348" fill="none" stroke="#ffffff" stroke-width="3" stroke-linecap="round" transform="matrix(-0.97437,-0.224951,0.224951,-0.97437,3200.69,-8449.47)"/>
  <path d="M 10.29397201538086 20.0582160949707 C 11.22831535339355 19.59102630615234 11.69955539703369 17.84055519104004 11.69030952453613 15.45268535614014 C 13.45616817474365 15.37282371520996 14.73488330841064 14.67353439331055 15.04448127746582 13.39674282073975 C 15.36998748779297 12.05606460571289 14.55437850952148 10.3754711151123 13.02524662017822 8.840629577636719 C 13.74875164031982 7.38814115524292 13.99066257476807 6.042466163635254 13.57416439056396 5.123057842254639 C 12.99491691589355 3.845771312713623 11.29822731018066 3.715991973876953 9.251619338989258 4.573010921478271 C 7.816445827484131 1.361066222190857 6.077218532562256 -0.5066995024681091 4.821439266204834 0.1207155883312225 C 3.88709545135498 0.587408721446991 3.41585373878479 2.338378190994263 3.425470352172852 4.726246356964111 C 1.659241557121277 4.806108951568604 0.3805290162563324 5.505398750305176 0.07093019038438797 6.78169059753418 C -0.2545738816261292 8.122872352600098 0.5610352754592896 9.803462028503418 2.090163946151733 11.33830738067627 C 1.366657257080078 12.79079437255859 1.124748468399048 14.13646411895752 1.541245341300964 15.05587291717529 C 2.120494842529297 16.33316421508789 3.817553997039795 16.46293830871582 5.863789081573486 15.60591983795166 C 7.298965930938721 18.8173656463623 9.038191795349121 20.68563079833984 10.29397201538086 20.0582160949707" fill="#e13950" transform="matrix(-0.406737,0.913545,-0.913545,-0.406737,3035.68,-8628.02)"/>
  <path d="M 14.74749374389648 -7.085576726240106e-06 C 14.74749374389648 -7.085576726240106e-06 -3.218106746673584 20.02785110473633 0.5089183449745178 32.02389526367188" fill="none" stroke="#e13950" stroke-width="3" transform="matrix(0.994522,-0.104528,0.104528,0.994522,3034.53,-8638.92)"/>
  <path d="M 9.070731163024902 0.1682647615671158 C 7.312917232513428 0.819616973400116 6.426360130310059 3.26009726524353 6.443751335144043 6.589227199554443 C 3.121585369110107 6.700570583343506 0.7159011363983154 7.675510406494141 0.1334411650896072 9.455593109130859 C -0.4789443910121918 11.32474803924561 1.05549156665802 13.66780281066895 3.932289123535156 15.80765724182129 C 2.571135282516479 17.83269309997559 2.116021156311035 19.70880889892578 2.899589538574219 20.99063491821289 C 3.989348411560059 22.77140808105469 7.181386470794678 22.95234298706055 11.03173542022705 21.75749969482422 C 13.73177528381348 26.23554229736328 17.00383949279785 28.83955001831055 19.36637878417969 27.96481895446777 C 21.12419128417969 27.31416130065918 22.01075172424316 24.87298393249512 21.99266052246094 21.54385566711426 C 25.31552505493164 21.43251419067383 27.72120666503906 20.45757293701172 28.30366706848145 18.67818641662598 C 28.91604804992676 16.80833435058594 27.38161277770996 14.46528244018555 24.50481986999512 12.32542514801025 C 25.86597633361816 10.30039024353027 26.32108688354492 8.424276351928711 25.53751945495605 7.142450332641602 C 24.4477596282959 5.361671924591064 21.25502586364746 5.180743217468262 17.40537643432617 6.375584125518799 C 14.7053337097168 1.898240566253662 11.43326950073242 -0.7064678072929382 9.070731163024902 0.1682647615671158" fill="#e13950" transform="matrix(0.994522,-0.104528,0.104528,0.994522,3030.57,-8652.64)"/>
  <path d="M 0 0 C 0 0 10.19816017150879 11.36733055114746 8.081571578979492 18.17583274841309" fill="none" stroke="#e13950" stroke-width="3" transform="matrix(0.994522,-0.104528,0.104528,0.994522,3027.88,-8622.12)"/>
  <path d="M 14.09258460998535 7.143938541412354 C 14.09258460998535 7.143938541412354 4.927331924438477 -6.568654537200928 -1.923006493598223e-06 4.002384185791016" fill="none" stroke="#e13950" stroke-width="3" transform="matrix(0.994522,-0.104528,0.104528,0.994522,3038.11,-8611.14)"/>
  <ellipse cx="96.51261901855469" cy="96.51273345947266" rx="96.51261901855469" ry="96.51273345947266" fill="#18536c" transform="matrix(0.945519,0.325568,-0.325568,0.945519,2990.29,-8633.94)"/>
  <ellipse cx="41.764427185058594" cy="41.980873107910156" rx="41.764427185058594" ry="41.980873107910156" fill="#18536c" transform="matrix(0.945519,0.325568,-0.325568,0.945519,3136.94,-8641.12)"/>
  <path d="M -19470.349609375 -5174.6025390625 C -19470.349609375 -5174.6025390625 -19497.30859375 -5164.59375 -19486.947265625 -5134.3857421875 C -19476.5859375 -5104.177734375 -19512.52734375 -5146.12109375 -19512.52734375 -5146.12109375 L -19537 -5168.765625 L -19482.28515625 -5192.208984375 L -19470.349609375 -5174.6025390625 Z" fill="#18536c" transform="matrix(0.945519,0.325568,-0.325568,0.945519,19900.1,2684)"/>
  <rect x="0" y="0" width="181.33984375" height="241.78646850585938" fill="none" transform="matrix(1,0,0,1,2956.2,-8608.65)"/>
  <path d="M 0 0" fill="none" stroke="#ffffff" stroke-width="5" stroke-linecap="round" transform="matrix(0.694658,0.71934,-0.71934,0.694658,3157.7,-8554.55)"/>
  <path d="M 4.165945483691758e-06 8.011921882629395 C 4.165945483691758e-06 8.011921882629395 7.9018235206604 6.52060079574585 10.79612445831299 5.613646408164641e-06" fill="none" stroke="#ffffff" stroke-width="3" stroke-linecap="round" transform="matrix(0.681998,0.731354,-0.731354,0.681998,3161.85,-8561.35)"/>
  <path d="M -1.253451955562923e-07 0.7250484824180603 C -1.253451955562923e-07 0.7250484824180603 0.7252634167671204 0.5902249217033386 0.9906860589981079 -1.712683825871864e-07" fill="none" stroke="#ffffff" stroke-width="3" stroke-linecap="round" transform="matrix(0.981627,0.190809,-0.190809,0.981627,3173.06,-8555.37)"/>
  <path d="M -12455.1162109375 7750.607421875 C -12455.1162109375 7750.607421875 -12457.5634765625 7739.3759765625 -12450.544921875 7744.94140625 C -12443.525390625 7750.505859375 -12458.88671875 7725.1552734375 -12458.88671875 7725.1552734375 L -12476.3994140625 7699.9462890625 C -12476.3994140625 7699.9462890625 -12471.7548828125 7712.625 -12495.8173828125 7711.4130859375 C -12519.87890625 7710.2001953125 -12491.9658203125 7737.4072265625 -12491.9658203125 7737.4072265625 L -12455.1162109375 7750.607421875 Z" fill="#18536c" transform="matrix(0.945519,0.325568,-0.325568,0.945519,17503,-11850)"/>
  <rect x="0" y="0" width="119.4505844116211" height="159.26744079589844" fill="none" transform="matrix(1,0,0,1,3199.71,-8717.56)"/>
</svg>